<?xml version="1.0" standalone="no"?>
<!DOCTYPE svg PUBLIC "-//W3C//DTD SVG 20010904//EN"
 "http://www.w3.org/TR/2001/REC-SVG-20010904/DTD/svg10.dtd">
<svg version="1.0" xmlns="http://www.w3.org/2000/svg"
 width="734.000000pt" height="1009.000000pt" viewBox="0 0 734.000000 1009.000000"
 preserveAspectRatio="xMidYMid meet">
<metadata>
Created by potrace 1.16, written by Peter Selinger 2001-2019
</metadata>
<g transform="translate(0.000000,1009.000000) scale(0.100000,-0.100000)"
fill="#FFFFFF" stroke="none">
<path d="M3038 9159 c-329 -49 -607 -194 -839 -436 -195 -205 -322 -454 -375
-738 -18 -95 -19 -179 -19 -1585 0 -1659 -4 -1556 71 -1780 184 -549 673 -933
1250 -980 161 -13 891 -13 1048 0 348 29 653 170 900 416 206 206 348 474 403
764 17 89 18 189 18 1585 0 1642 4 1538 -61 1755 -129 430 -487 795 -921 939
-196 65 -182 64 -828 67 -324 1 -616 -2 -647 -7z m1277 -438 c369 -105 643
-387 738 -761 l22 -85 0 -1475 0 -1475 -27 -100 c-88 -318 -329 -591 -618
-699 -193 -73 -268 -79 -855 -73 -511 5 -517 5 -686 67 -306 110 -546 377
-637 705 l-27 100 0 1475 0 1475 23 89 c100 395 408 691 802 771 50 11 192 13
625 11 550 -2 561 -2 640 -25z"/>
<path d="M3586 8038 c-52 -14 -121 -82 -135 -133 -15 -54 -15 -696 0 -750 16
-58 83 -119 148 -135 40 -9 62 -9 102 0 65 16 132 77 148 135 15 54 15 696 0
750 -15 55 -83 119 -142 133 -53 14 -68 14 -121 0z"/>
<path d="M3565 3011 c-22 -10 -52 -31 -67 -47 -60 -64 -58 -40 -58 -790 l0
-688 -87 86 c-49 47 -102 92 -119 101 -77 40 -161 30 -228 -25 -72 -59 -97
-168 -57 -246 11 -20 145 -162 298 -314 298 -297 326 -318 419 -318 25 0 61 9
82 19 46 24 594 574 616 618 9 18 16 54 16 80 -1 158 -164 258 -303 187 -16
-9 -71 -55 -121 -102 l-91 -86 -5 699 c-4 628 -7 703 -22 730 -55 99 -175 141
-273 96z"/>
</g>
</svg>
